# xmcd
#
# Track frame offsets:
#	150
#	18796
#	37383
#	55383
#	72836
#	103986
#	121919
#	133259
#	166881
#	190137
#	211391
#	235580
#
# Disc length: 3516 seconds
#
# Revision: 0
# Processed by: cddbd v1.5.2PL0 Copyright (c) Steve Scherf et al.
# Submitted via: SynApp - FreeCDDB Version: 2.3
#
DISCID=ac0dba0c
DTITLE=Phil Fuldner - Tiefenrausch
DYEAR=0000
DGENRE=A capella
TTITLE0=Community Records - 04 - Gypsy Sunrise (Organic Soul Mix)
TTITLE1=Dani König pres. Les Deux Tours - 01 - E-Body F. Now
TTITLE2=Definite Groove - 07 - Groove Estivo (Déjà Vu Original Mix)
TTITLE3=Eric Wesenberg vs. Brothers de Funk - 10 - Feelin'
TTITLE4=Harry - Choo Choo- Romero - 06
TTITLE5=Kiko - 11 - Italomatic
TTITLE6=Le pemier prix de la maison du - 05 - Jambatimba
TTITLE7=Moquai pres. Punks - 12 - The Rock (Full Vocal Mix)
TTITLE8=Niquid - 08 - Closer
TTITLE9=Steve Mac and Yousef pres. The Drumbums - 09 - I Like this
TTITLE10=Tribal Man - 02 - Tribal Music
TTITLE11=X - Press 2 - 03
EXTD=
EXTT0=
EXTT1=
EXTT2=
EXTT3=
EXTT4=
EXTT5=
EXTT6=
EXTT7=
EXTT8=
EXTT9=
EXTT10=
EXTT11=
PLAYORDER=
